<?xml version="1.0" standalone="no"?><svg xmlns="http://www.w3.org/2000/svg" viewBox="0 0 1440 320"><path fill="#fff" fill-opacity="0.98" d="M0,288L34.3,245.3C68.6,203,137,117,206,117.3C274.3,117,343,203,411,240C480,277,549,267,617,218.7C685.7,171,754,85,823,42.7C891.4,0,960,0,1029,42.7C1097.1,85,1166,171,1234,176C1302.9,181,1371,107,1406,69.3L1440,32L1440,320L1405.7,320C1371.4,320,1303,320,1234,320C1165.7,320,1097,320,1029,320C960,320,891,320,823,320C754.3,320,686,320,617,320C548.6,320,480,320,411,320C342.9,320,274,320,206,320C137.1,320,69,320,34,320L0,320Z"></path></svg>
