<?xml version="1.0" standalone="no"?><svg xmlns="http://www.w3.org/2000/svg" viewBox="0 0 1440 320"><path fill="#fff" fill-opacity="0.98" d="M0,288L34.3,245.3C68.6,203,137,117,206,117.3C274.3,117,343,203,411,240C480,277,549,267,617,218.7C685.7,171,754,85,823,42.7C891.4,0,960,0,1029,42.7C1097.1,85,1166,171,1234,176C1302.9,181,1371,107,1406,69.3L1440,32L1440,0L1405.7,0C1371.4,0,1303,0,1234,0C1165.7,0,1097,0,1029,0C960,0,891,0,823,0C754.3,0,686,0,617,0C548.6,0,480,0,411,0C342.9,0,274,0,206,0C137.1,0,69,0,34,0L0,0Z"></path></svg>
